HIERARCHY
ROOT Hips
{
	OFFSET 0.000000 0.000000 0.000000
	CHANNELS 6 Xposition Yposition Zposition Xrotation Yrotation Zrotation
	JOINT LeftUpLeg_virtual
	{
		OFFSET 0.000000 0.000000 0.000000
		CHANNELS 3 Xrotation Yrotation Zrotation
		JOINT LeftUpLeg
		{
			OFFSET 15.427100 -6.655098 0.678600
			CHANNELS 3 Xrotation Yrotation Zrotation
			JOINT LeftLeg
			{
				OFFSET 4.081073 -39.591068 13.024000
				CHANNELS 3 Xrotation Yrotation Zrotation
				JOINT LeftFoot
				{
					OFFSET -4.081074 -37.707932 -15.979700
					CHANNELS 3 Xrotation Yrotation Zrotation
					JOINT LeftToeBase
					{
						OFFSET 5.346399 -15.068900 20.645000
						CHANNELS 3 Xrotation Yrotation Zrotation
						JOINT LeftToe_End
						{
							OFFSET 2.754700 0.931300 11.300900
							CHANNELS 3 Xrotation Yrotation Zrotation
							End Site
							{
								OFFSET 0 0 0
							}
						}
					}
				}
			}
		}
	}
	JOINT RightUpLeg_virtual
	{
		OFFSET 0.000000 0.000000 0.000000
		CHANNELS 3 Xrotation Yrotation Zrotation
		JOINT RightUpLeg
		{
			OFFSET -15.569500 -6.655098 0.678600
			CHANNELS 3 Xrotation Yrotation Zrotation
			JOINT RightLeg
			{
				OFFSET -4.081825 -39.591045 13.023800
				CHANNELS 3 Xrotation Yrotation Zrotation
				JOINT RightFoot
				{
					OFFSET 4.081824 -37.707954 -15.979600
					CHANNELS 3 Xrotation Yrotation Zrotation
					JOINT RightToeBase
					{
						OFFSET -5.346400 -15.068900 20.645000
						CHANNELS 3 Xrotation Yrotation Zrotation
						JOINT RightToe_End
						{
							OFFSET -2.754700 0.931300 11.300900
							CHANNELS 3 Xrotation Yrotation Zrotation
							End Site
							{
								OFFSET 0 0 0
							}
						}
					}
				}
			}
		}
	}
	JOINT Spine_virtual
	{
		OFFSET 0.000000 0.000000 0.000000
		CHANNELS 3 Xrotation Yrotation Zrotation
		JOINT Spine
		{
			OFFSET -0.279200 12.230698 -2.892100
			CHANNELS 3 Xrotation Yrotation Zrotation
			JOINT Spine1
			{
				OFFSET -0.232667 10.192268 -1.242267
				CHANNELS 3 Xrotation Yrotation Zrotation
				JOINT Spine1_split
				{
					OFFSET -0.232667 10.192268 -1.242267
					CHANNELS 3 Xrotation Yrotation Zrotation
					JOINT Spine2
					{
						OFFSET -0.232667 10.192268 -1.242267
						CHANNELS 3 Xrotation Yrotation Zrotation
						JOINT Neck_virtual
						{
							OFFSET 0.000000 0.000000 0.000000
							CHANNELS 3 Xrotation Yrotation Zrotation
							JOINT Neck
							{
								OFFSET -0.418800 17.814194 8.416900
								CHANNELS 3 Xrotation Yrotation Zrotation
								JOINT Head
								{
									OFFSET 0.000000 7.031097 3.806800
									CHANNELS 3 Xrotation Yrotation Zrotation
									JOINT HeadTop_End
									{
										OFFSET 0.000000 24.646606 12.978600
										CHANNELS 3 Xrotation Yrotation Zrotation
										End Site
										{
											OFFSET 0 0 0
										}
									}
								}
							}
						}
						JOINT LeftShoulder_virtual
						{
							OFFSET 0.000000 0.000000 0.000000
							CHANNELS 3 Xrotation Yrotation Zrotation
							JOINT LeftShoulder
							{
								OFFSET 8.476499 7.247704 -3.868750
								CHANNELS 3 Xrotation Yrotation Zrotation
								JOINT LeftShoulder_split
								{
									OFFSET 8.476499 7.247704 -3.868750
									CHANNELS 3 Xrotation Yrotation Zrotation
									JOINT LeftArm
									{
										OFFSET 9.308998 -2.777710 0.208600
										CHANNELS 3 Xrotation Yrotation Zrotation
										JOINT LeftForeArm
										{
											OFFSET 29.972298 0.000000 0.000000
											CHANNELS 3 Xrotation Yrotation Zrotation
											JOINT LeftHand
											{
												OFFSET 26.026505 0.000000 0.000000
												CHANNELS 3 Xrotation Yrotation Zrotation
												End Site
												{
													OFFSET 0 0 0
												}
											}
										}
									}
								}
							}
						}
						JOINT RightShoulder_virtual
						{
							OFFSET 0.000000 0.000000 0.000000
							CHANNELS 3 Xrotation Yrotation Zrotation
							JOINT RightShoulder
							{
								OFFSET -7.570500 7.247704 -3.868750
								CHANNELS 3 Xrotation Yrotation Zrotation
								JOINT RightShoulder_split
								{
									OFFSET -7.570500 7.247704 -3.868750
									CHANNELS 3 Xrotation Yrotation Zrotation
									JOINT RightArm
									{
										OFFSET -9.308998 -2.777710 0.208500
										CHANNELS 3 Xrotation Yrotation Zrotation
										JOINT RightForeArm
										{
											OFFSET -29.972300 0.000000 0.000000
											CHANNELS 3 Xrotation Yrotation Zrotation
											JOINT RightHand
											{
												OFFSET -26.026505 0.000000 0.000000
												CHANNELS 3 Xrotation Yrotation Zrotation
												End Site
												{
													OFFSET 0 0 0
												}
											}
										}
									}
								}
							}
						}
					}
				}
			}
		}
	}
}
MOTION
Frames: 5
Frame Time: 0.03333333
4.237499 137.804047 7.516483 0.000000 0.000000 0.000000 0.687398 -5.446275 15.543164 -81.742434 -2.714024 1.533462 52.981040 -5.349484 -10.739582 36.245092 -6.499279 27.016854 9.342289 -0.480884 -2.764624 0.000000 0.000000 0.000000 -4.790786 -1.083147 16.330316 -88.034814 6.100004 -30.834179 106.466482 18.240536 -3.059130 35.599824 -11.087453 3.930214 53.659540 1.835760 5.718856 0.000000 0.000000 0.000000 -5.607882 2.453878 17.339260 32.404928 -9.778499 -8.253293 0.835502 -3.623342 -0.387507 0.380202 -1.048307 -0.097377 0.000000 0.000000 0.000000 5.765600 0.263065 0.717226 -7.890956 9.629579 6.564421 -17.567651 5.883699 -27.239107 0.000000 0.000000 0.000000 0.949463 -0.951398 -2.126094 12.271797 -25.527777 25.823159 -1.071540 1.492359 3.938951 -38.821887 13.303292 17.637919 -38.284040 -57.496471 -18.134523 0.000000 0.000000 0.000000 4.120269 -1.051694 -1.008751 1.946148 2.433473 -17.682129 10.686994 6.281271 -3.263086 -71.398973 3.463276 -26.180206 -48.118686 46.295958 48.419781 0.000000 0.000000 0.000000 
2.902091 138.047485 15.167549 0.000000 0.000000 0.000000 0.034801 -5.285265 15.296945 -81.258467 -3.352975 2.622587 50.654981 -6.054469 -10.633294 37.200595 -5.622309 26.474658 10.516358 -0.112006 -3.615640 0.000000 0.000000 0.000000 -3.119800 -2.931779 16.705294 -83.327891 3.374736 -30.096628 99.853370 16.726331 -1.375451 31.707654 -11.318995 6.635340 40.764096 1.316795 4.622811 0.000000 0.000000 0.000000 -4.999380 2.438269 16.470093 30.942352 -9.598385 -8.220768 0.203504 -3.795333 -0.683889 0.074947 -0.964471 -0.264497 0.000000 0.000000 0.000000 5.283959 -0.049429 0.272979 -6.557950 9.886122 5.894553 -18.045508 8.057922 -27.802879 0.000000 0.000000 0.000000 0.269903 -1.204163 -2.707938 11.471917 -24.762911 24.279038 -0.441109 0.821584 3.759498 -37.175938 12.056158 17.638415 -42.131691 -58.380195 -22.209619 0.000000 0.000000 0.000000 3.732305 -1.411204 -1.410106 1.813318 1.639090 -17.040325 11.633856 6.522348 -0.654819 -70.097412 1.776422 -25.356423 -48.871066 46.991357 49.597634 0.000000 0.000000 0.000000 
1.575788 138.150238 25.081936 0.000000 0.000000 0.000000 -0.156519 -6.280846 15.007398 -76.555766 -3.538443 2.929432 43.016176 -5.021017 -10.132018 37.292843 -3.619351 25.131778 9.834093 0.202391 -3.953234 0.000000 0.000000 0.000000 -1.283122 -6.904992 16.751201 -73.842234 -1.324612 -28.618399 86.758169 14.511007 0.196735 26.579288 -12.920089 9.216102 27.925297 1.847285 4.833494 0.000000 0.000000 0.000000 -3.989766 1.077838 15.490388 27.807145 -8.897039 -7.784769 -0.099359 -4.299333 -1.670345 -0.072646 -0.683532 -0.188480 0.000000 0.000000 0.000000 5.259277 -0.787308 -0.959068 -4.864188 10.119229 4.938196 -19.148377 10.018785 -27.927826 0.000000 0.000000 0.000000 0.171790 -1.853324 -3.815350 9.927442 -23.270352 20.648816 -0.404792 -0.501507 3.095454 -35.384000 8.188675 16.935107 -42.791815 -57.681658 -23.945484 0.000000 0.000000 0.000000 3.800355 -2.139495 -2.393456 2.094657 2.135191 -15.149667 11.237070 6.383870 0.001625 -67.744617 -0.699525 -24.303157 -50.850376 48.909742 51.962443 0.000000 0.000000 0.000000 
0.773834 137.526855 35.559803 0.000000 0.000000 0.000000 -0.242786 -8.439684 14.456924 -69.768948 -4.035141 3.277179 33.634669 -4.181208 -8.826841 39.247148 -1.618180 21.236052 8.360147 0.412207 -4.912076 0.000000 0.000000 0.000000 0.091075 -11.753238 16.232549 -61.191917 -6.873143 -25.967788 69.305110 11.778409 1.267741 22.016654 -15.630676 11.367708 18.531208 2.929959 6.503234 0.000000 0.000000 0.000000 -3.280938 -1.227043 14.575559 23.664789 -7.658196 -6.894990 0.077683 -5.025917 -3.259684 -0.053554 -0.405850 0.036098 0.000000 0.000000 0.000000 5.630763 -1.737581 -2.767185 -3.074237 10.224010 4.048020 -20.831724 10.901723 -27.254157 0.000000 0.000000 0.000000 0.690634 -2.735729 -5.359023 7.917110 -21.379083 15.351202 -0.450355 -0.891119 2.877276 -34.803441 2.519674 15.685794 -39.740250 -55.992248 -22.779659 0.000000 0.000000 0.000000 4.217599 -3.074643 -3.851144 2.695227 4.018275 -12.415784 9.845224 6.144836 -0.501442 -65.121489 -3.115539 -23.567450 -52.993518 51.364710 54.376871 0.000000 0.000000 0.000000 
0.170696 135.463226 46.612392 0.000000 0.000000 0.000000 -0.499768 -12.688916 13.632286 -62.931369 -5.057957 4.597531 25.720213 -4.885880 -7.014500 44.531167 -0.990534 14.334661 5.666209 0.501675 -6.193975 0.000000 0.000000 0.000000 0.792345 -16.379787 15.098919 -47.569747 -12.210070 -22.264525 51.530154 9.316147 1.428569 18.315173 -18.335073 13.860544 10.761451 4.084993 8.703345 0.000000 0.000000 0.000000 -2.941709 -4.141130 13.648729 19.392140 -5.858446 -5.478892 0.661496 -5.764140 -5.257059 0.040769 -0.296983 0.282008 0.000000 0.000000 0.000000 6.277896 -2.608087 -4.913204 -1.641220 10.256790 3.442018 -23.129927 10.540447 -25.451351 0.000000 0.000000 0.000000 1.592415 -3.621832 -7.125750 5.867054 -19.400879 9.738113 0.450088 -0.643419 3.580948 -36.427332 -3.280947 13.905291 -33.688528 -53.724451 -19.178201 0.000000 0.000000 0.000000 4.876224 -3.976816 -5.632048 3.323255 7.160544 -9.323042 8.526794 6.828419 -1.086757 -63.240482 -4.847004 -23.583081 -54.101720 53.702157 55.669918 0.000000 0.000000 0.000000 
